<svg viewBox="0 0 160 160" xmlns="http://www.w3.org/2000/svg" width="160" height="160"
    font-family="Arial, Helvetica, sans-serif">
    <g transform="translate(20,10)">

        <text x="0" y="-3" fill="white" font-weight="bold" font-size="14" alignment-baseline="central">CHT °F</text>
        <text id="chtvalue" x="130" y="-3" fill="white" font-weight="bold" font-size="14" text-anchor="end"
            alignment-baseline="central">300</text>
        <text x="0" y="108" fill="white" font-weight="bold" font-size="14" alignment-baseline="central">EGT
            ° F</text>
        <text id="egtvalue" x="130" y="108" fill="white" font-weight="bold" font-size="14" text-anchor="end"
            alignment-baseline="central">300</text>

        <line x1="0" y1="10" x2="120" y2="10" stroke="white"></line>

        <line x1="20" y1="95" x2="130" y2="95" stroke="white"></line>
        <line x1="0" y1="95" x2="12" y2="95" stroke="white"></line>
        <line x1="0" y1="10" x2="0" y2="95" stroke="white"></line>
        <line x1="130" y1="10" x2="130" y2="95" stroke="white"></line>
        <line x1="5" y1="42" x2="5" y2="60" stroke="#00FF00" stroke-width="10"></line>
        <line x1="5" y1="36" x2="5" y2="42" stroke="#FFFF00" stroke-width="10"></line>
        <line x1="1" y1="37" x2="120" y2="37" stroke="#FFFF00" stroke-width="2"></line>

        <line x1="5" y1="33" x2="5" y2="36" stroke="#FF0000" stroke-width="10"></line>

        <!-- EGT -->
        <line id="C1_EGT" x1="32" y1="95" x2="32" y2="50" stroke-width="15" stroke="#00FF00"></line>
        <line id="C2_EGT" x1="58" y1="95" x2="58" y2="50" stroke-width="15" stroke="#00FF00"></line>
        <line id="C3_EGT" x1="84" y1="95" x2="84" y2="50" stroke-width="15" stroke="#00FF00"></line>
        <line id="C4_EGT" x1="110" y1="95" x2="110" y2="50" stroke-width="15" stroke="#00FF00"></line>

        <!-- CHT -->
        <rect id="C1_CHT" x="20" y="62" width="24" height="5" stroke-width="2" stroke="#222222" fill="white"></rect>
        <rect id="C2_CHT" x="46" y="62" width="24" height="5" stroke-width="2" stroke="#222222" fill="white"></rect>
        <rect id="C3_CHT" x="72" y="62" width="24" height="5" stroke-width="2" stroke="#222222" fill="white"></rect>
        <rect id="C4_CHT" x="98" y="62" width="24" height="5" stroke-width="2" stroke="#222222" fill="white"></rect>
        <line x1="0" y1="60" x2="12" y2="60" stroke="white" stroke-width="2"></line>
        <line x1="0" y1="70" x2="12" y2="70" stroke="white" stroke-width="2"></line>

    </g>
</svg>