<svg viewBox="0 0 200 120" xmlns="http://www.w3.org/2000/svg" width="200" height="120" font-family="Arial, Helvetica, sans-serif">
    <g transform="translate(20,10)">
        <text x="65" y="-3" fill="white" font-weight="bold" font-size="14" text-anchor="middle" alignment-baseline="central">FUEL GAL</text>
        <text id="fuelright" x="130" y="-3" fill="white" font-weight="bold" font-size="14" text-anchor="end" alignment-baseline="central">50</text>
        <text id="fuelleft" x="0" y="-3" fill="white" font-weight="bold" font-size="14" alignment-baseline="central">50</text>

        <line x1="0" y1="30" x2="50" y2="30" stroke="white"></line>
        <line x1="80" y1="30" x2="130" y2="30" stroke="white"></line>
        <line x1="0" y1="25" x2="12.5" y2="25" stroke-width="10" stroke="#DDDD00"></line>

        <line x1="12.5" y1="25" x2="50" y2="25" stroke-width="10" stroke="#00DD00"></line>

        <line x1="80" y1="25" x2="92.5" y2="25" stroke-width="10" stroke="#DDDD00"></line>
        <line x1="92.5" y1="25" x2="130" y2="25" stroke-width="10" stroke="#00DD00"></line>

        <path id="fuelmarker_left" d="M0,30 l-0.5,0 l-9.5,-19 l1,-1 l19,0 l1,1 l-9.5,19 l-0.5,0" fill="white" stroke="black"></path>
        <g transform="translate(80,0)">
            <path id="fuelmarker_right" d="M0,30 l-0.5,0 l-9.5,-19 l1,-1 l19,0 l1,1 l-9.5,19 l-0.5,0" fill="white" stroke="black"></path>
        </g>
        <line x1="0" y1="30" x2="0" y2="13" stroke="white"></line>
        <line x1="50" y1="30" x2="50" y2="13" stroke="white"></line>
        <line x1="80" y1="30" x2="80" y2="13" stroke="white"></line>
        <line x1="130" y1="30" x2="130" y2="13" stroke="white"></line>
    </g>
</svg>