<svg viewBox="0 0 200 120" xmlns="http://www.w3.org/2000/svg" width="200" height="120" font-family="Arial, Helvetica, sans-serif">
    <g transform="translate(20,10)">
        <text x="0" y="-3" fill="white" font-weight="bold" font-size="14" alignment-baseline="central">OIL PSI</text>
        <text id="oilpsivalue" x="130" y="-3" fill="white" font-weight="bold" font-size="14" text-anchor="end" alignment-baseline="central">50</text>
        <line x1="0" y1="30" x2="130" y2="30" stroke="white"></line>
        <line x1="0" y1="30" x2="0" y2="13" stroke="white"></line>
        <line id="dash2" x1="29" y1="30" x2="29" y2="13" stroke="white"></line>
        <line id="dash3" x1="72" y1="30" x2="72" y2="13" stroke="white"></line>
        <line id="dash4" x1="100" y1="30" x2="100" y2="13" stroke="white"></line>
        <line x1="130" y1="30" x2="130" y2="13" stroke="red"></line>
        <line id="line1" x1="0" y1="25" x2="72" y2="25" stroke-width="10" stroke="#DD0000"></line>
        <line id="line2" x1="29" y1="25" x2="72" y2="25" stroke-width="10" stroke="#DDDD00"></line>
        <line id="line3" x1="72" y1="25" x2="100" y2="25" stroke-width="10" stroke="#00DD00"></line>
        <line id="line4" x1="100" y1="25" x2="130" y2="25" stroke-width="10" stroke="#DDDD00"></line>
        <path id="oilpsi" d="M0,30 l-0.5,0 l-9.5,-19 l1,-1 l19,0 l1,1 l-9.5,19 l-0.5,0" fill="white" stroke="black"></path>
    </g>
</svg>