<svg viewBox="0 0 100 350" xmlns="http://www.w3.org/2000/svg" width="100" height="350" font-family="Arial, Helvetica, sans-serif">
    <defs>
        <clipPath id="speed_tape_clip" maskContentUnits="objectBoundingBox">
            <rect x="0" y="30" width="98" height="275"></rect>
        </clipPath>

        <clipPath id="speed_dial_clip">
            <path d="M0,0 L0,-13 A4,4,90,0,1,4,-17 L55,-17 L55,-31 A4,4,90,0,1,59,-35 L71,-35 A4,4,90,0,1,75,-31 L75,-6 L81,0 L75,6 L75,31 A4,4,90,0,1,71,35 L59,35 A4,4,90,0,1,55,31 L55,17 L4,17 A4,4,90,0,1,0,13 L0,0"></path>
        </clipPath>

        <!-- Speed Tape Lines -->
        <line id="speed_tape_long" x1="82" y1="0" x2="98" y2="0" stroke="#CCCCCC" stroke-width="2"></line>
        <line id="speed_tape_short" x1="85" y1="0" x2="98" y2="0" stroke="#CCCCCC" stroke-width="2"></line>

        <!-- Speed Dials -->
        <g id="speed_dial">
            <rect x="0" y="-367" width="20" height="446" fill="black"></rect>
            <text x="10" y="-320" alignment-baseline="central" fill="white" font-weight="bold" font-size="32" text-anchor="middle">0</text>
            <text x="10" y="-288" alignment-baseline="central" fill="white" font-weight="bold" font-size="32" text-anchor="middle">9</text>
            <text x="10" y="-256" alignment-baseline="central" fill="white" font-weight="bold" font-size="32" text-anchor="middle">8</text>
            <text x="10" y="-224" alignment-baseline="central" fill="white" font-weight="bold" font-size="32" text-anchor="middle">7</text>
            <text x="10" y="-192" alignment-baseline="central" fill="white" font-weight="bold" font-size="32" text-anchor="middle">6</text>
            <text x="10" y="-160" alignment-baseline="central" fill="white" font-weight="bold" font-size="32" text-anchor="middle">5</text>
            <text x="10" y="-128" alignment-baseline="central" fill="white" font-weight="bold" font-size="32" text-anchor="middle">4</text>
            <text x="10" y="-96" alignment-baseline="central" fill="white" font-weight="bold" font-size="32" text-anchor="middle">3</text>
            <text x="10" y="-64" alignment-baseline="central" fill="white" font-weight="bold" font-size="32" text-anchor="middle">2</text>
            <text x="10" y="-32" alignment-baseline="central" fill="white" font-weight="bold" font-size="32" text-anchor="middle">1</text>
            <text x="10" y="0" alignment-baseline="central" fill="white" font-weight="bold" font-size="32" text-anchor="middle">0</text>
            <text x="10" y="32" alignment-baseline="central" fill="white" font-weight="bold" font-size="32" text-anchor="middle">9</text>
        </g>
    </defs>

    <g transform="translate(0,0)">
        <path d="M0,30 L0,6 A6,6,90,0,1,6,0 L92,0 A6,6,90,0,1,98,6 L98,329 A6,6,90,0,1,92,335 L6,335 A6,6,90,0,1,0,329 L0,6" fill="black" fill-opacity="0.4"></path>
        <path d="M0,30 L0,6 A6,6,-90,0,1,6,0 L92,0 A6,6,90,0,1,98,6 L98,30 L0,30" fill="black" fill-opacity="0.4">
        </path>
        <path d="M98,305 L98,329 A6,6,90,0,1,92,335 L6,335 A6,6,90,0,1,0,329 L0,305" fill="black" fill-opacity="0.4">
        </path>
        <text x="4" y="14" font-size="16" font-weight="bold" fill="#707070" alignment-baseline="central" text-anchor="start">TAS</text>
        <text id="tas" x="75" y="14" font-size="20" font-weight="bold" fill="white" alignment-baseline="central" text-anchor="end">---</text>
        <text x="92" y="17" font-size="12" font-weight="bold" fill="white" alignment-baseline="central" text-anchor="end">KT</text>
        <text x="4" y="320" font-size="16" font-weight="bold" fill="#707070" alignment-baseline="central" text-anchor="start">GS</text>
        <text id="gs" x="75" y="320" font-size="20" font-weight="bold" fill="#F000F0" alignment-baseline="central" text-anchor="end">---</text>
        <text x="92" y="323" font-size="12" font-weight="bold" fill="#F000F0" alignment-baseline="central" text-anchor="end">KT</text>
        <!-- Speed Tape -->
        <g clip-path="url(#speed_tape_clip)">
            <g id="as_tape" transform="translate(0,0)">
                <line id="greenLine" x1="93" y1="170" x2="93" y2="-302" stroke="#00DD00" stroke-width="10"></line>
                <line id="whiteLine" x1="95" y1="170" x2="95" y2="-142" stroke="white" stroke-width="7"></line>
                <line id="yellowLine" x1="93" y1="-302" x2="93" y2="-486" stroke="#DDFF00" stroke-width="10"></line>
                <line id="redLine" x1="93" y1="-486" x2="93" y2="-630" stroke="#DD0000" stroke-width="10"></line>

                <use href="#speed_tape_long" transform="translate(0,170)"></use>
                <use href="#speed_tape_short" transform="translate(0,150)"></use>
                <use href="#speed_tape_long" transform="translate(0,130)"></use>
                <use href="#speed_tape_short" transform="translate(0,110)"></use>
                <use href="#speed_tape_long" transform="translate(0,90)"></use>
                <use href="#speed_tape_short" transform="translate(0,70)"></use>
                <use href="#speed_tape_long" transform="translate(0,50)"></use>
                <use href="#speed_tape_short" transform="translate(0,30)"></use>
                <use href="#speed_tape_long" transform="translate(0,10)"></use>
                <use href="#speed_tape_short" transform="translate(0,-10)"></use>
                <use href="#speed_tape_long" transform="translate(0,-30)"></use>
                <use href="#speed_tape_short" transform="translate(0,-50)"></use>
                <use href="#speed_tape_long" transform="translate(0,-70)"></use>
                <use href="#speed_tape_short" transform="translate(0,-90)"></use>
                <use href="#speed_tape_long" transform="translate(0,-110)"></use>
                <use href="#speed_tape_short" transform="translate(0,-130)"></use>
                <use href="#speed_tape_long" transform="translate(0,-150)"></use>
                <use href="#speed_tape_short" transform="translate(0,-170)"></use>
                <use href="#speed_tape_long" transform="translate(0,-190)"></use>
                <use href="#speed_tape_short" transform="translate(0,-210)"></use>
                <use href="#speed_tape_long" transform="translate(0,-230)"></use>
                <use href="#speed_tape_short" transform="translate(0,-250)"></use>
                <use href="#speed_tape_long" transform="translate(0,-270)"></use>
                <use href="#speed_tape_short" transform="translate(0,-290)"></use>
                <use href="#speed_tape_long" transform="translate(0,-310)"></use>
                <use href="#speed_tape_short" transform="translate(0,-330)"></use>
                <use href="#speed_tape_long" transform="translate(0,-350)"></use>
                <use href="#speed_tape_short" transform="translate(0,-370)"></use>
                <use href="#speed_tape_long" transform="translate(0,-390)"></use>
                <use href="#speed_tape_short" transform="translate(0,-410)"></use>
                <use href="#speed_tape_long" transform="translate(0,-430)"></use>
                <use href="#speed_tape_short" transform="translate(0,-450)"></use>
                <use href="#speed_tape_long" transform="translate(0,-470)"></use>
                <use href="#speed_tape_short" transform="translate(0,-490)"></use>
                <use href="#speed_tape_long" transform="translate(0,-510)"></use>
                <use href="#speed_tape_short" transform="translate(0,-530)"></use>
                <use href="#speed_tape_long" transform="translate(0,-550)"></use>
                <use href="#speed_tape_short" transform="translate(0,-570)"></use>
                <use href="#speed_tape_long" transform="translate(0,-590)"></use>
                <use href="#speed_tape_short" transform="translate(0,-610)"></use>
                <use href="#speed_tape_long" transform="translate(0,-630)"></use>

                <text x="75" y="170" font-size="24" font-weight="bold" fill="#CCCCCC" alignment-baseline="central" text-anchor="end">0</text>
                <text x="75" y="130" font-size="24" font-weight="bold" fill="#CCCCCC" alignment-baseline="central" text-anchor="end">10</text>
                <text x="75" y="90" font-size="24" font-weight="bold" fill="#CCCCCC" alignment-baseline="central" text-anchor="end">20</text>
                <text x="75" y="50" font-size="24" font-weight="bold" fill="#CCCCCC" alignment-baseline="central" text-anchor="end">30</text>
                <text x="75" y="10" font-size="24" font-weight="bold" fill="#CCCCCC" alignment-baseline="central" text-anchor="end">40</text>
                <text x="75" y="-30" font-size="24" font-weight="bold" fill="#CCCCCC" alignment-baseline="central" text-anchor="end">50</text>
                <text x="75" y="-70" font-size="24" font-weight="bold" fill="#CCCCCC" alignment-baseline="central" text-anchor="end">60</text>
                <text x="75" y="-110" font-size="24" font-weight="bold" fill="#CCCCCC" alignment-baseline="central" text-anchor="end">70</text>
                <text x="75" y="-150" font-size="24" font-weight="bold" fill="#CCCCCC" alignment-baseline="central" text-anchor="end">80</text>
                <text x="75" y="-190" font-size="24" font-weight="bold" fill="#CCCCCC" alignment-baseline="central" text-anchor="end">90</text>
                <text x="75" y="-230" font-size="24" font-weight="bold" fill="#CCCCCC" alignment-baseline="central" text-anchor="end">100</text>
                <text x="75" y="-270" font-size="24" font-weight="bold" fill="#CCCCCC" alignment-baseline="central" text-anchor="end">110</text>
                <text x="75" y="-310" font-size="24" font-weight="bold" fill="#CCCCCC" alignment-baseline="central" text-anchor="end">120</text>
                <text x="75" y="-350" font-size="24" font-weight="bold" fill="#CCCCCC" alignment-baseline="central" text-anchor="end">130</text>
                <text x="75" y="-390" font-size="24" font-weight="bold" fill="#CCCCCC" alignment-baseline="central" text-anchor="end">140</text>
                <text x="75" y="-430" font-size="24" font-weight="bold" fill="#CCCCCC" alignment-baseline="central" text-anchor="end">150</text>
                <text x="75" y="-470" font-size="24" font-weight="bold" fill="#CCCCCC" alignment-baseline="central" text-anchor="end">160</text>
                <text x="75" y="-510" font-size="24" font-weight="bold" fill="#CCCCCC" alignment-baseline="central" text-anchor="end">170</text>
                <text x="75" y="-550" font-size="24" font-weight="bold" fill="#CCCCCC" alignment-baseline="central" text-anchor="end">180</text>
                <text x="75" y="-590" font-size="24" font-weight="bold" fill="#CCCCCC" alignment-baseline="central" text-anchor="end">190</text>
                <text x="75" y="-630" font-size="24" font-weight="bold" fill="#CCCCCC" alignment-baseline="central" text-anchor="end">200</text>
            </g>
        </g>
        <!-- speed dials -->
        <g transform="translate(8,170)">
            <path d="M0,0 L0,-14 A4,4,90,0,1,4,-18 L54,-18 L54,-32 A4,4,90,0,1,58,-36 L71,-36 A4,4,90,0,1,75,-32 L75,-7 L82,0 L75,7 L75,32 A4,4,90,0,1,71,36 L58,36 A4,4,90,0,1,54,32 L54,18 L4,18 A4,4,90,0,1,0,14 L0,0" fill="black"
                stroke="#666666"></path>

            <g clip-path="url(#speed_dial_clip)">
                <g transform="translate(54,0)">
                    <use id="as_digit1_tape" href="#speed_dial"></use>
                </g>
                <g transform="translate(34,0)">
                    <use id="as_digit2_tape" href="#speed_dial"></use>
                </g>
                <g transform="translate(14,0)">
                    <use id="as_digit3_tape" href="#speed_dial"></use>
                </g>
                <rect x="0" y="-35" width="90" height="16" mask="url(#grad_alt_up_fade)"></rect>
                <rect x="0" y="20" width="90" height="16" mask="url(#grad_alt_down_fade)"></rect>
            </g>
        </g>
    </g>
</svg>