<svg viewBox="0 0 500 600" xmlns="http://www.w3.org/2000/svg" width="500" height="600" font-family="Arial, Helvetica, sans-serif">
    <defs>
        <line id="compass_line_long" x1="0" y1="-135" x2="0" y2="-119" stroke="#DDDDDD"></line>
        <line id="compass_line_short" x1="0" y1="-135" x2="0" y2="-129" stroke="#DDDDDD"></line>
        <line id="compass_line_strong" x1="0" y1="-135" x2="0" y2="-112" stroke-width="2" stroke="#DDDDDD"></line>
        <line id="compass_line_outer" x1="0" y1="-140" x2="0" y2="-152" stroke-width="2.5" stroke="#DDDDDD"></line>
        <line id="compass_line_outer_thin" x1="0" y1="-140" x2="0" y2="-152" stroke-width="1" stroke="#DDDDDD"></line>
    </defs>
    <g transform="translate(200,200)">
        <g id="compass">
            <circle cx="0" cy="0" r="135" fill="black" opacity="0.3"></circle>
            <use href="#compass_line_long" transform="rotate(0,0,0)"></use>
            <use href="#compass_line_long" transform="rotate(10,0,0)"></use>
            <use href="#compass_line_long" transform="rotate(20,0,0)"></use>
            <use href="#compass_line_long" transform="rotate(30,0,0)"></use>
            <use href="#compass_line_long" transform="rotate(40,0,0)"></use>
            <use href="#compass_line_long" transform="rotate(50,0,0)"></use>
            <use href="#compass_line_long" transform="rotate(60,0,0)"></use>
            <use href="#compass_line_long" transform="rotate(70,0,0)"></use>
            <use href="#compass_line_long" transform="rotate(80,0,0)"></use>
            <use href="#compass_line_long" transform="rotate(90,0,0)"></use>
            <use href="#compass_line_long" transform="rotate(100,0,0)"></use>
            <use href="#compass_line_long" transform="rotate(110,0,0)"></use>
            <use href="#compass_line_long" transform="rotate(120,0,0)"></use>
            <use href="#compass_line_long" transform="rotate(130,0,0)"></use>
            <use href="#compass_line_long" transform="rotate(140,0,0)"></use>
            <use href="#compass_line_long" transform="rotate(150,0,0)"></use>
            <use href="#compass_line_long" transform="rotate(160,0,0)"></use>
            <use href="#compass_line_long" transform="rotate(170,0,0)"></use>
            <use href="#compass_line_long" transform="rotate(180,0,0)"></use>
            <use href="#compass_line_long" transform="rotate(190,0,0)"></use>
            <use href="#compass_line_long" transform="rotate(200,0,0)"></use>
            <use href="#compass_line_long" transform="rotate(210,0,0)"></use>
            <use href="#compass_line_long" transform="rotate(220,0,0)"></use>
            <use href="#compass_line_long" transform="rotate(230,0,0)"></use>
            <use href="#compass_line_long" transform="rotate(240,0,0)"></use>
            <use href="#compass_line_long" transform="rotate(250,0,0)"></use>
            <use href="#compass_line_long" transform="rotate(260,0,0)"></use>
            <use href="#compass_line_long" transform="rotate(270,0,0)"></use>
            <use href="#compass_line_long" transform="rotate(280,0,0)"></use>
            <use href="#compass_line_long" transform="rotate(290,0,0)"></use>
            <use href="#compass_line_long" transform="rotate(300,0,0)"></use>
            <use href="#compass_line_long" transform="rotate(310,0,0)"></use>
            <use href="#compass_line_long" transform="rotate(320,0,0)"></use>
            <use href="#compass_line_long" transform="rotate(330,0,0)"></use>
            <use href="#compass_line_long" transform="rotate(340,0,0)"></use>
            <use href="#compass_line_long" transform="rotate(350,0,0)"></use>

            <use href="#compass_line_short" transform="rotate(5,0,0)"></use>
            <use href="#compass_line_short" transform="rotate(15,0,0)"></use>
            <use href="#compass_line_short" transform="rotate(25,0,0)"></use>
            <use href="#compass_line_short" transform="rotate(35,0,0)"></use>
            <use href="#compass_line_short" transform="rotate(45,0,0)"></use>
            <use href="#compass_line_short" transform="rotate(55,0,0)"></use>
            <use href="#compass_line_short" transform="rotate(65,0,0)"></use>
            <use href="#compass_line_short" transform="rotate(75,0,0)"></use>
            <use href="#compass_line_short" transform="rotate(85,0,0)"></use>
            <use href="#compass_line_short" transform="rotate(95,0,0)"></use>
            <use href="#compass_line_short" transform="rotate(105,0,0)"></use>
            <use href="#compass_line_short" transform="rotate(115,0,0)"></use>
            <use href="#compass_line_short" transform="rotate(125,0,0)"></use>
            <use href="#compass_line_short" transform="rotate(135,0,0)"></use>
            <use href="#compass_line_short" transform="rotate(145,0,0)"></use>
            <use href="#compass_line_short" transform="rotate(155,0,0)"></use>
            <use href="#compass_line_short" transform="rotate(165,0,0)"></use>
            <use href="#compass_line_short" transform="rotate(175,0,0)"></use>
            <use href="#compass_line_short" transform="rotate(185,0,0)"></use>
            <use href="#compass_line_short" transform="rotate(195,0,0)"></use>
            <use href="#compass_line_short" transform="rotate(205,0,0)"></use>
            <use href="#compass_line_short" transform="rotate(215,0,0)"></use>
            <use href="#compass_line_short" transform="rotate(225,0,0)"></use>
            <use href="#compass_line_short" transform="rotate(235,0,0)"></use>
            <use href="#compass_line_short" transform="rotate(245,0,0)"></use>
            <use href="#compass_line_short" transform="rotate(255,0,0)"></use>
            <use href="#compass_line_short" transform="rotate(265,0,0)"></use>
            <use href="#compass_line_short" transform="rotate(275,0,0)"></use>
            <use href="#compass_line_short" transform="rotate(285,0,0)"></use>
            <use href="#compass_line_short" transform="rotate(295,0,0)"></use>
            <use href="#compass_line_short" transform="rotate(305,0,0)"></use>
            <use href="#compass_line_short" transform="rotate(315,0,0)"></use>
            <use href="#compass_line_short" transform="rotate(325,0,0)"></use>
            <use href="#compass_line_short" transform="rotate(335,0,0)"></use>
            <use href="#compass_line_short" transform="rotate(345,0,0)"></use>
            <use href="#compass_line_short" transform="rotate(355,0,0)"></use>

            <use href="#compass_line_strong" transform="rotate(0,0,0)"></use>
            <use href="#compass_line_strong" transform="rotate(30,0,0)"></use>
            <use href="#compass_line_strong" transform="rotate(60,0,0)"></use>
            <use href="#compass_line_strong" transform="rotate(90,0,0)"></use>
            <use href="#compass_line_strong" transform="rotate(120,0,0)"></use>
            <use href="#compass_line_strong" transform="rotate(150,0,0)"></use>
            <use href="#compass_line_strong" transform="rotate(180,0,0)"></use>
            <use href="#compass_line_strong" transform="rotate(210,0,0)"></use>
            <use href="#compass_line_strong" transform="rotate(240,0,0)"></use>
            <use href="#compass_line_strong" transform="rotate(270,0,0)"></use>
            <use href="#compass_line_strong" transform="rotate(300,0,0)"></use>
            <use href="#compass_line_strong" transform="rotate(330,0,0)"></use>

            <circle cx="0" cy="0" r="76" stroke="white" fill="transparent"></circle>
            <text id="comp_N" x="0" y="-94" fill="white" font-weight="bold" font-size="24" text-anchor="middle" dominant-baseline="central">N</text>
            <text id="comp_E" x="94" y="0" fill="white" font-weight="bold" font-size="24" text-anchor="middle" dominant-baseline="central">E</text>
            <text id="comp_S" x="0" y="94" fill="white" font-weight="bold" font-size="24" text-anchor="middle" dominant-baseline="central">S</text>
            <text id="comp_W" x="-94" y="0" fill="white" font-weight="bold" font-size="24" text-anchor="middle" dominant-baseline="central">W</text>
            <text id="comp_3" x="47" y="-81.4" fill="white" font-weight="bold" font-size="24" text-anchor="middle" dominant-baseline="central">3</text>
            <text id="comp_6" x="81.4" y="-47" fill="white" font-weight="bold" font-size="24" text-anchor="middle" dominant-baseline="central">6</text>
            <text id="comp_12" x="81.4" y="47" fill="white" font-weight="bold" font-size="24" text-anchor="middle" dominant-baseline="central">12</text>
            <text id="comp_15" x="47" y="81.4" fill="white" font-weight="bold" font-size="24" text-anchor="middle" dominant-baseline="central">15</text>
            <text id="comp_21" x="-47" y="81.4" fill="white" font-weight="bold" font-size="24" text-anchor="middle" dominant-baseline="central">21</text>
            <text id="comp_24" x="-81.4" y="47" fill="white" font-weight="bold" font-size="24" text-anchor="middle" dominant-baseline="central">24</text>
            <text id="comp_30" x="-81.4" y="-47" fill="white" font-weight="bold" font-size="24" text-anchor="middle" dominant-baseline="central">30</text>
            <text id="comp_33" x="-47" y="-81.4" fill="white" font-weight="bold" font-size="24" text-anchor="middle" dominant-baseline="central">33</text>

            <!-- Heading Bug -->
            <g id="hdg-bug">
                <path d="M0,-135 l-13,0 l0,-13 l5,0 l8,8 l8,-8 l5,0 l0,13 l-13,0" stroke="black" fill="#00F0F0"></path>
            </g>

            <g id="compass-trk-needle">
                <path d="M-2,115 L-2,-115 L-14,-109 L0,-135 L12,-109 L2,-115 L2,115 L-2,115" stroke="#503030" fill="#F000F0">
                </path>
            </g>
        </g>
        <use href="#compass_line_outer" transform="rotate(45,0,0)"></use>
        <use href="#compass_line_outer" transform="rotate(90,0,0)"></use>
        <use href="#compass_line_outer" transform="rotate(135,0,0)"></use>
        <use href="#compass_line_outer" transform="rotate(180,0,0)"></use>
        <use href="#compass_line_outer" transform="rotate(225,0,0)"></use>
        <use href="#compass_line_outer" transform="rotate(270,0,0)"></use>
        <use href="#compass_line_outer" transform="rotate(315,0,0)"></use>

        <use href="#compass_line_outer_thin" transform="rotate(20,0,0)"></use>
        <use href="#compass_line_outer_thin" transform="rotate(-20,0,0)"></use>
        <use href="#compass_line_outer_thin" transform="rotate(10,0,0)"></use>
        <use href="#compass_line_outer_thin" transform="rotate(-10,0,0)"></use>

       


        <!-- Track -->
        <g>
            <rect x="-52" y="-180" width="86" height="29" rx="5" stroke="#808080" fill="black" opacity="0.7"></rect>
            <path d="M 0,-154 l-13,0 l13,13 l13,-13 l-13,0" fill="black"></path>
            <path d="M 0,-148 l-7,0 l7,7 l7,-7 l-7,0" fill="#F000F0"></path>
            <text x="-45" y="-164" font-size="12" fill="#F000F0" font-weight="bold" alignment-baseline="middle">TRK</text>
            <text id="trk-text" x="5" y="-164" font-size="20" fill="#F000F0" font-weight="bold" text-anchor="middle" alignment-baseline="middle">200°</text>
        </g>

        <!-- Heading -->
        <g transform="translate(-105,10)">
            <rect x="-52" y="-180" width="86" height="29" rx="8" stroke="#808080" fill="black" opacity="0.7"></rect>
            <text x="-45" y="-164" font-size="12" fill="white" font-weight="bold" alignment-baseline="middle">HDG</text>
            <text id="hdg-text" x="5" y="-164" font-size="20" fill="#00F0F0" font-weight="bold" text-anchor="middle" alignment-baseline="middle">200°</text>
        </g>

        <!-- Course -->
        <g transform="translate(120,10)">
            <rect x="-52" y="-180" width="86" height="29" rx="8" fill="black" opacity="0.7"></rect>
            <text x="-45" y="-164" font-size="12" fill="white" font-weight="bold" alignment-baseline="middle">CRS</text>
            <text id="crs-text" x="5" y="-164" font-size="20" fill="#F000F0" font-weight="bold" text-anchor="middle" alignment-baseline="middle">---°</text>
        </g>
    </g>
</svg>