<svg viewBox="0 0 1280 24" xmlns="http://www.w3.org/2000/svg" width="1280" height="24"
    font-family="Arial, Helvetica, sans-serif">

    <defs>
        <!-- Button Gradient -->
        <linearGradient id="grad_btn" gradientTransform="rotate(90)">
            <stop offset="0%" stop-color="#000000" />
            <stop offset="15%" stop-color="#555555" />
            <stop offset="50%" stop-color="#000000" />
        </linearGradient>
    </defs>
    <g transform="translate(0,0)">
        <rect x="0" y="0" width="385" height="22" stroke="#666666" fill="black" stroke-width="2" ry="2" rx="2"></rect>
        <rect x="2" y="2" width="381" height="18" stroke="black" fill="url(#grad_btn)" stroke-width="2" ry="2" rx="2">
        </rect>
        <text x="5" y="11" fill="white" font-weight="bold" font-size="16" alignment-baseline="central"
            text-anchor="start">Heading</text>
        <line x1="71" y1="11" x2="80" y2="11" stroke-width="2" stroke="#5577DD"></line>
        <circle cx="80" cy="11" r="3" fill="#5577DD"></circle>
        <path d="M75,8 A6,6,240,1,1,75,14" stroke-width="2" stroke="#5577DD" fill="transparent"></path>
        <line x1="86" y1="11" x2="93" y2="11" stroke-width="2" stroke="#5577DD"></line>
        <text x="95" y="11" fill="white" font-weight="bold" font-size="16" alignment-baseline="central"
            text-anchor="start">Altitude</text>
    </g>
    <g transform="translate(385,0)">
        <rect x="0" y="0" width="100" height="22" stroke="#666666" fill="black" stroke-width="2" ry="2" rx="2"></rect>
        <rect x="2" y="2" width="96" height="18" stroke="black" fill="url(#grad_btn)" stroke-width="2" ry="2" rx="2">
        </rect>
        <text x="5" y="11" fill="white" font-weight="bold" font-size="16" alignment-baseline="central"
            text-anchor="start">TMR</text>
        <text x="95" y="11" fill="white" font-weight="bold" font-size="16" alignment-baseline="central"
            text-anchor="end">00:00</text>
    </g>
    <g transform="translate(485,0)">
        <rect x="0" y="0" width="100" height="22" stroke="#666666" fill="black" stroke-width="2" ry="2" rx="2"></rect>
        <rect x="2" y="2" width="96" height="18" stroke="black" fill="url(#grad_btn)" stroke-width="2" ry="2" rx="2">
        </rect>
        <text x="5" y="11" fill="white" font-weight="bold" font-size="16" alignment-baseline="central"
            text-anchor="start">OAT</text>
        <text id="oat" x="95" y="11" fill="white" font-weight="bold" font-size="16" alignment-baseline="central"
            text-anchor="end">23 °C</text>
    </g>
    <g transform="translate(585,0)">
        <rect x="0" y="0" width="136" height="22" stroke="#666666" fill="black" stroke-width="2" ry="2" rx="2"></rect>
        <rect x="2" y="2" width="132" height="18" stroke="black" fill="url(#grad_btn)" stroke-width="2" ry="2" rx="2">
        </rect>
        <text x="5" y="11" fill="white" font-weight="bold" font-size="16" alignment-baseline="central"
            text-anchor="start">LCL</text>
        <text id="time" x="132" y="11" fill="white" font-weight="bold" font-size="16" alignment-baseline="central"
            text-anchor="end">08:00:30am</text>
    </g>
    <g transform="translate(721,0)">
        <rect x="0" y="0" width="559" height="22" stroke="#666666" fill="black" stroke-width="2" ry="2" rx="2"></rect>
        <rect x="2" y="2" width="555" height="18" stroke="black" fill="url(#grad_btn)" stroke-width="2" ry="2" rx="2">
        </rect>
    </g>

</svg>